<svg id="Layer_1" data-name="Layer 1" xmlns="http://www.w3.org/2000/svg" width="179.93" height="64.38" viewBox="0 0 179.93 64.38"><path d="M12.8,47.82H.22c-.19,0-.25-.11-.21-.33L9.35,1.1A.29.29,0,0,1,9.66.83h0l13.51,0A12.25,12.25,0,0,1,30,2.6a10.29,10.29,0,0,1,4,4.88,11.47,11.47,0,0,1,.51,6.61A13.28,13.28,0,0,1,32,19.51,17.86,17.86,0,0,1,28,23.59a10.69,10.69,0,0,1,2.26,4.51,12.35,12.35,0,0,1,.06,5.41,16.43,16.43,0,0,1-3.37,7.17,20,20,0,0,1-6.34,5.18A16.67,16.67,0,0,1,12.8,47.82Zm4-20.2H12.52l-2.44,12h4.35a7.29,7.29,0,0,0,4.71-1.8,7.26,7.26,0,0,0,2.66-4.23,4.72,4.72,0,0,0-1-4.19A5,5,0,0,0,16.8,27.62ZM21.59,8.8H16.25L14.14,19.45h5.35a6.26,6.26,0,0,0,4.27-1.68A6.66,6.66,0,0,0,26,14.15a4.32,4.32,0,0,0-.87-3.74A4.27,4.27,0,0,0,21.59,8.8Z" transform="translate(0 -0.14)"/><path d="M54.79,47.66l-22.7.09c-.19,0-.25-.11-.21-.33L41.14,1a.37.37,0,0,1,.4-.33h7.82c.23,0,.32.11.28.33L42,39.4l14.47-.06c.23,0,.33.11.28.33l-1.52,7.66A.37.37,0,0,1,54.79,47.66Z" transform="translate(0 -0.14)"/><path d="M56.69,47.32,74.6.85A.4.4,0,0,1,75,.58l10.19,0a.26.26,0,0,1,.29.23v0l-.84,46.41a.31.31,0,0,1-.29.33H76.51c-.23,0-.34-.11-.31-.33l.22-5-9.55.12-1.74,5a.39.39,0,0,1-.41.33H56.9C56.71,47.65,56.64,47.54,56.69,47.32ZM76.61,16.11l-6.92,19h6.76l.88-19,.08-2.51Z" transform="translate(0 -0.14)"/><path d="M112.56,47.44l-26.19.1c-.23,0-.33-.11-.28-.33l1.53-7.36L111.1,8.13l-16.29.06c-.2,0-.29-.09-.25-.26L96,.83A.36.36,0,0,1,96.34.5l25.4-.1c.23,0,.32.11.28.33L120.58,8,97.23,39.58l16.9-.06c.18,0,.25.12.2.36L113,47.11a.37.37,0,0,1-.4.33Z" transform="translate(0 -0.14)"/><path d="M139.56,47.34l-22.69.08q-.27,0-.21-.33L125.93.65a.29.29,0,0,1,.32-.26h0L148.81.3q.28,0,.21.33l-1.49,7.56a.31.31,0,0,1-.33.26l-14.4.06L130.71,19l14.4-.05c.18,0,.25.08.22.26l-1.46,7.69a.3.3,0,0,1-.33.26l-14.47.06L126.74,39h14.47q.27,0,.21.33L139.87,47a.29.29,0,0,1-.3.3Z" transform="translate(0 -0.14)"/><path d="M158.31,47.2l-12.59.11c-.23,0-.32-.1-.28-.33L154.78.54a.3.3,0,0,1,.33-.27h0L168.25.16A11.51,11.51,0,0,1,175,1.85a10.44,10.44,0,0,1,4.12,4.88,11.5,11.5,0,0,1,.56,6.81L175.8,33a16.31,16.31,0,0,1-3.37,7.14,19.87,19.87,0,0,1-6.29,5.12A17.39,17.39,0,0,1,158.31,47.2Zm8.34-38.95-4.92.08L155.59,39H160a7.33,7.33,0,0,0,4.73-1.77A7.24,7.24,0,0,0,167.3,33l3.86-19.47a4.31,4.31,0,0,0-3.24-5.16,4.15,4.15,0,0,0-1.27-.1Z" transform="translate(0 -0.14)"/><path d="M109,64.32H102.5c-.06,0-.08,0-.08-.1l0-13.74s0-.08.08-.08h6.42s.08,0,.08.1v2.24a.07.07,0,0,1-.08.08h-4.1v3.12h4.1A.07.07,0,0,1,109,56l0,2.27c0,.05,0,.07-.08.07h-4.12v3.5H109c.05,0,.08,0,.08.1v2.28A.07.07,0,0,1,109,64.32Z" transform="translate(0 -0.14)"/><path d="M114.21,64.52a3.77,3.77,0,0,1-2-.55,4.22,4.22,0,0,1-1.42-1.46,4,4,0,0,1-.53-2v-.92c0-.07,0-.1.1-.1h2.24s.08,0,.08.1v.92a1.62,1.62,0,0,0,.44,1.13,1.36,1.36,0,0,0,1,.47,1.39,1.39,0,0,0,1.07-.48,1.61,1.61,0,0,0,.44-1.12c0-.49-.32-.91-1-1.28l-.4-.24-.59-.32-.67-.37-.62-.35a4.27,4.27,0,0,1-1.63-1.61,4.55,4.55,0,0,1-.53-2.19,3.83,3.83,0,0,1,.54-2,4.22,4.22,0,0,1,1.44-1.41,3.63,3.63,0,0,1,1.91-.52,3.79,3.79,0,0,1,2,.53,4.11,4.11,0,0,1,1.42,1.42,3.85,3.85,0,0,1,.53,2v1.65c0,.05,0,.07-.08.07H115.8c-.06,0-.08,0-.08-.07l0-1.65a1.58,1.58,0,0,0-.44-1.14,1.44,1.44,0,0,0-1.05-.44,1.39,1.39,0,0,0-1,.47,1.59,1.59,0,0,0-.44,1.11,2,2,0,0,0,.28,1.1,2.65,2.65,0,0,0,1,.84l.36.19.63.35.63.34.34.18a4.73,4.73,0,0,1,1.58,1.37,3.3,3.3,0,0,1,.58,2,4,4,0,0,1-.53,2A3.92,3.92,0,0,1,116.19,64,3.84,3.84,0,0,1,114.21,64.52Z" transform="translate(0 -0.14)"/><path d="M123.39,64.32h-2.25c-.06,0-.09,0-.09-.1V52.82h-2.6c-.06,0-.09,0-.09-.1V50.48a.07.07,0,0,1,.08-.08h7.6c.07,0,.11,0,.11.08v2.24c0,.06,0,.1-.08.1h-2.63l0,11.4C123.47,64.29,123.45,64.32,123.39,64.32Z" transform="translate(0 -0.14)"/><path d="M127.67,64.32h-2.26c-.06,0-.08,0-.08-.08V62c0-.06,0-.08.08-.08h2.26s.08,0,.08.08v2.26A.07.07,0,0,1,127.67,64.32Z" transform="translate(0 -0.14)"/><path d="M141.75,64.32h-7.46c-.06,0-.09,0-.09-.1V62a.11.11,0,0,1,0-.08l5-6.78a1.58,1.58,0,0,0,.22-.47,1.47,1.47,0,0,0,.1-.5,1.62,1.62,0,0,0-.42-1.08A1.4,1.4,0,0,0,137,53a1.67,1.67,0,0,0-.43,1.19v1a.09.09,0,0,1-.1.1H134.2c-.06,0-.08,0-.08-.1v-1a3.85,3.85,0,0,1,.55-2,4.28,4.28,0,0,1,1.44-1.46,3.6,3.6,0,0,1,1.9-.54,3.66,3.66,0,0,1,2,.55,4.35,4.35,0,0,1,1.41,1.45,3.81,3.81,0,0,1,.53,2,4.23,4.23,0,0,1-.23,1.33,4,4,0,0,1-.63,1.2l-3.8,5.22h4.49c.06,0,.09,0,.09.08v2.26C141.84,64.29,141.81,64.32,141.75,64.32Z" transform="translate(0 -0.14)"/><path d="M147.46,64.52A4.64,4.64,0,0,1,145.2,64a4.13,4.13,0,0,1-1.53-1.46,3.8,3.8,0,0,1-.55-2l0-6.34a3.7,3.7,0,0,1,.56-2,4,4,0,0,1,1.52-1.44,4.56,4.56,0,0,1,2.24-.54,4.48,4.48,0,0,1,2.24.54,4,4,0,0,1,1.51,1.44,3.74,3.74,0,0,1,.55,2l0,6.34a3.87,3.87,0,0,1-.54,2A4.15,4.15,0,0,1,149.71,64,4.57,4.57,0,0,1,147.46,64.52Zm1.9-4,0-6.34a1.42,1.42,0,0,0-.52-1.14,2.35,2.35,0,0,0-2.74,0,1.42,1.42,0,0,0-.52,1.14V60.5a1.41,1.41,0,0,0,.52,1.17,2.05,2.05,0,0,0,1.38.43,2.1,2.1,0,0,0,1.37-.43A1.42,1.42,0,0,0,149.36,60.5Z" transform="translate(0 -0.14)"/><path d="M160.46,64.32H153c-.06,0-.09,0-.09-.1V62a.09.09,0,0,1,0-.08l4.94-6.78a1.87,1.87,0,0,0,.23-.47,1.71,1.71,0,0,0,.09-.5,1.62,1.62,0,0,0-.42-1.08,1.4,1.4,0,0,0-2.11,0,1.67,1.67,0,0,0-.43,1.19v1a.09.09,0,0,1-.1.1h-2.24c-.06,0-.08,0-.08-.1v-1a3.85,3.85,0,0,1,.55-2,4.28,4.28,0,0,1,1.44-1.46,3.71,3.71,0,0,1,3.87,0,4.35,4.35,0,0,1,1.41,1.45,3.81,3.81,0,0,1,.53,2,4.23,4.23,0,0,1-.23,1.33,4,4,0,0,1-.63,1.2L156,61.88h4.49c.06,0,.09,0,.09.08v2.26C160.55,64.29,160.52,64.32,160.46,64.32Z" transform="translate(0 -0.14)"/><path d="M169.24,64.32h-7.46c-.06,0-.09,0-.09-.1V62a.11.11,0,0,1,0-.08l4.95-6.78a1.87,1.87,0,0,0,.23-.47,1.71,1.71,0,0,0,.09-.5,1.62,1.62,0,0,0-.42-1.08,1.4,1.4,0,0,0-2.11,0,1.67,1.67,0,0,0-.43,1.19v1a.09.09,0,0,1-.1.1h-2.24c-.06,0-.08,0-.08-.1v-1a3.85,3.85,0,0,1,.55-2,4.28,4.28,0,0,1,1.44-1.46,3.6,3.6,0,0,1,1.9-.54,3.66,3.66,0,0,1,2,.55,4.35,4.35,0,0,1,1.41,1.45,3.81,3.81,0,0,1,.53,2,4.23,4.23,0,0,1-.23,1.33,4,4,0,0,1-.63,1.2l-3.8,5.22h4.49c.06,0,.09,0,.09.08v2.26C169.33,64.29,169.3,64.32,169.24,64.32Z" transform="translate(0 -0.14)"/></svg>