<svg id="Layer_2" data-name="Layer 2" xmlns="http://www.w3.org/2000/svg" width="179.92" height="47.72" viewBox="0 0 179.92 47.72"><path d="M13.93,47.78l-12.58,0c-.19,0-.25-.11-.21-.33L10.48,1.06A.29.29,0,0,1,10.8.79L24.31.74a12.23,12.23,0,0,1,6.8,1.82,10.31,10.31,0,0,1,4,4.88,11.49,11.49,0,0,1,.51,6.61,13.34,13.34,0,0,1-2.45,5.42,18.06,18.06,0,0,1-4.06,4.08,10.74,10.74,0,0,1,2.26,4.51,12.31,12.31,0,0,1,.06,5.41,16.56,16.56,0,0,1-3.37,7.17,20.11,20.11,0,0,1-6.34,5.18A16.64,16.64,0,0,1,13.93,47.78Zm4-20.2-4.28,0L11.21,39.55l4.35,0a7.31,7.31,0,0,0,4.71-1.8,7.25,7.25,0,0,0,2.66-4.23,4.75,4.75,0,0,0-1-4.19A4.94,4.94,0,0,0,17.93,27.58ZM22.72,8.76l-5.34,0L15.27,19.41l5.35,0a6.24,6.24,0,0,0,4.27-1.68,6.7,6.7,0,0,0,2.23-3.62,4.34,4.34,0,0,0-.87-3.74A4.29,4.29,0,0,0,22.72,8.76Z" transform="translate(-1.13 -0.11)"/><path d="M55.92,47.62l-22.7.09c-.19,0-.25-.11-.21-.33L42.27,1a.37.37,0,0,1,.4-.33l7.82,0c.23,0,.32.11.28.33L43.09,39.36l14.47-.06c.23,0,.33.11.28.33l-1.52,7.66A.37.37,0,0,1,55.92,47.62Z" transform="translate(-1.13 -0.11)"/><path d="M57.82,47.28,75.73.81a.4.4,0,0,1,.39-.27L86.31.5a.26.26,0,0,1,.29.27l-.84,46.41a.31.31,0,0,1-.34.33l-7.78,0c-.23,0-.34-.11-.31-.33l.22-5L68,42.3l-1.74,5a.4.4,0,0,1-.41.33l-7.82,0C57.84,47.61,57.77,47.5,57.82,47.28ZM77.74,16.07l-6.92,19,6.76,0,.88-19,.08-2.51Z" transform="translate(-1.13 -0.11)"/><path d="M113.69,47.4l-26.19.1c-.23,0-.33-.11-.28-.33l1.53-7.36L112.23,8.09l-16.29.06c-.2,0-.29-.09-.25-.26l1.4-7.1a.36.36,0,0,1,.38-.33l25.4-.1c.23,0,.32.11.28.33L121.71,8,98.36,39.54l16.9-.06c.18,0,.25.12.2.36l-1.36,7.23A.37.37,0,0,1,113.69,47.4Z" transform="translate(-1.13 -0.11)"/><path d="M140.69,47.3,118,47.38q-.28,0-.21-.33L127.06.61a.29.29,0,0,1,.32-.26L149.94.26q.28,0,.21.33l-1.49,7.56a.31.31,0,0,1-.33.26l-14.4.06L131.84,19l14.4-.05c.18,0,.25.08.22.26L145,26.9a.3.3,0,0,1-.33.26l-14.47.06L127.87,39,142.34,39q.27,0,.21.33L141,47A.3.3,0,0,1,140.69,47.3Z" transform="translate(-1.13 -0.11)"/><path d="M159.44,47.16l-12.59.11c-.23,0-.32-.1-.28-.33L155.91.5a.3.3,0,0,1,.33-.27L169.38.12a11.46,11.46,0,0,1,6.72,1.69,10.43,10.43,0,0,1,4.12,4.88,11.51,11.51,0,0,1,.56,6.81l-3.85,19.41a16.33,16.33,0,0,1-3.37,7.14,19.87,19.87,0,0,1-6.29,5.12A17.42,17.42,0,0,1,159.44,47.16Zm8.34-38.95-4.92.08-6.14,30.63h4.36a7.32,7.32,0,0,0,4.73-1.77,7.21,7.21,0,0,0,2.62-4.2l3.86-19.47a4.31,4.31,0,0,0-4.51-5.26Z" transform="translate(-1.13 -0.11)"/></svg>